<svg width="52" height="38" viewBox="0 0 52 38" fill="none" xmlns="http://www.w3.org/2000/svg">
<g id="emojione-monotone:bicycle">
<path id="Vector" d="M40.8575 18.1022C39.9242 18.1022 39.0266 18.2485 38.1803 18.5162C38.014 18.3275 37.8428 18.143 37.667 17.9628C40.9128 16.7735 44.7732 17.2787 47.736 20.1189C48.4312 20.7843 49.4815 19.7227 48.7847 19.0541C45.1442 15.5679 40.3307 15.132 36.4514 16.8638C35.6441 16.2161 34.7645 15.6609 33.8295 15.209C33.79 15.1904 33.752 15.1919 33.7141 15.1802L34.1467 13.8765L35.2176 10.6596C35.6976 10.795 36.0812 11.0363 36.4688 11.2597C37.1537 11.6543 37.8971 11.2239 38.3907 10.5911C38.7727 10.1031 39.5343 8.88496 39.3461 8.29186C39.1586 7.69798 38.2791 6.95077 37.6939 6.95077C35.2445 6.95077 35.2492 8.49812 32.4328 8.49812C31.2211 8.49812 30.4927 8.55105 30.4793 9.07566C30.4381 10.8051 31.3849 11.5088 31.9693 11.2332C32.6329 10.9196 33.1865 10.7328 33.6611 10.6355L32.7405 13.4056L30.7695 19.3366C26.3476 12.8148 18.9566 11.1694 16.3024 10.7818C16.5705 10.0657 16.8386 9.35041 17.1051 8.63433C17.1953 8.39227 17.0885 8.08482 16.9145 7.91125L15.3825 6.37557C16.6836 5.7669 18.2203 5.58088 19.6028 5.55597C19.6495 5.55519 19.6843 5.53573 19.7262 5.52795V5.85797C19.7262 6.06267 19.8923 6.23002 20.0971 6.23002C20.3019 6.23002 20.468 6.06267 20.468 5.85797V5.55597H23.063C23.1622 5.55474 23.2569 5.51492 23.3264 5.44522C23.3959 5.37551 23.4346 5.28157 23.4339 5.18392V4.43982C23.4348 4.3421 23.3962 4.24805 23.3266 4.1783C23.2571 4.10855 23.1623 4.0688 23.063 4.06777H20.468V3.62645C20.468 3.42174 20.3019 3.25439 20.0971 3.25439C19.8923 3.25439 19.7262 3.42096 19.7262 3.62645V4.09034C19.6843 4.08411 19.6495 4.06699 19.6028 4.06777C17.6603 4.10279 15.4324 4.41958 13.7905 5.56298C13.4029 5.83306 13.2827 6.37168 13.6402 6.7305L15.5296 8.625L14.7799 10.63L14.7411 10.6277L14.5616 11.2122L13.0707 16.0644C9.76556 15.4441 6.15114 16.2948 3.27146 19.0525C2.57547 19.7211 3.62499 20.7836 4.3202 20.1173C6.76329 17.7768 9.81617 17.0234 12.631 17.4958L12.457 18.0617L12.4934 18.2072C12.0695 18.145 11.6392 18.1014 11.1979 18.1014C6.29192 18.1022 2.30103 22.1044 2.30103 27.0244C2.30103 31.9443 6.29192 35.9466 11.1987 35.9466C16.1054 35.9466 20.0963 31.9443 20.0963 27.0244C20.0963 23.1194 17.5789 19.8021 14.0894 18.5949C14.0615 18.4321 14.0301 18.2699 13.9953 18.1084L14.0744 17.85C17.7458 19.0572 20.7069 22.4095 20.8398 27.0407C20.8674 28.0105 22.3488 28.0129 22.3211 27.0407C22.314 26.7772 22.2979 26.5139 22.2729 26.2515H22.1661C21.9677 26.2492 21.7783 26.1697 21.6393 26.0304C21.5003 25.8912 21.423 25.7034 21.4242 25.5081C21.4242 25.1408 21.6963 24.8489 22.0451 24.7889C21.9927 24.5506 21.9331 24.3139 21.8664 24.0791C22.038 24.3173 22.2159 24.5445 22.3986 24.764H24.0556C24.4376 24.764 24.7421 25.0598 24.7816 25.4319L26.9661 26.3083C27.8416 26.6593 27.4596 28.0977 26.5722 27.7412L23.8341 26.6422C23.8142 26.7686 23.8039 26.8964 23.8033 27.0244C23.8033 28.6674 25.1312 29.9984 26.7692 29.9984C27.6162 29.9984 28.3747 29.6388 28.9157 29.0675C28.9402 29.0699 28.9623 29.0831 28.9868 29.0831H30.8779C31.0762 29.0806 31.2655 29.0011 31.4044 28.8619C31.5434 28.7226 31.6208 28.5349 31.6198 28.3398C31.6198 28.1913 31.5745 28.0462 31.4897 27.9234C31.4049 27.8006 31.2847 27.7057 31.1444 27.6509H31.9915C32.0421 28.381 32.175 29.0878 32.3917 29.7587L26.7304 30.3533C26.6102 30.3689 26.4995 30.3751 26.3911 30.3751C24.8156 30.3751 23.4323 28.8091 23.4323 27.0244C23.4323 26.8461 23.4497 26.6718 23.4798 26.5005L22.8653 26.2546L22.8613 26.2515H22.7672C22.7184 26.5063 22.6933 26.765 22.6921 27.0244C22.6921 29.2411 24.387 31.113 26.3919 31.113C26.5327 31.113 26.6742 31.1045 26.8198 31.0866L32.6543 30.474C34.0012 33.6862 37.1703 35.9466 40.8575 35.9466C45.7635 35.9466 49.7551 31.9443 49.7551 27.0244C49.7551 22.1044 45.7635 18.1022 40.8575 18.1022ZM14.2666 21.9433C15.1443 22.4799 15.8682 23.2283 16.3694 24.1176C16.8706 25.0069 17.1326 26.0074 17.1304 27.0244C17.1304 30.3035 14.469 32.9725 11.1987 32.9725C7.92829 32.9725 5.26691 30.3035 5.26691 27.0244C5.26691 23.7444 7.92829 21.0762 11.1987 21.0762C11.7563 21.0762 12.2933 21.1595 12.805 21.3043C12.7654 23.033 12.3297 25.1127 10.7249 26.4531L10.7312 26.4608C10.6119 26.5567 10.5255 26.6864 10.4839 26.8323C10.4422 26.9782 10.4474 27.1333 10.4986 27.2762C10.5498 27.4192 10.6446 27.5431 10.77 27.631C10.8955 27.719 11.0454 27.7667 11.1995 27.7677C11.3722 27.7648 11.5383 27.7013 11.6677 27.5887L11.6732 27.5964C11.689 27.5832 11.7017 27.5684 11.7175 27.5552L11.727 27.5459C13.5223 26.0125 14.1305 23.8417 14.2666 21.9433ZM14.5086 16.438L15.1753 14.2672C16.7207 15.427 17.8604 17.2203 18.9321 19.1241C17.6879 17.9049 16.1739 16.9855 14.5086 16.438ZM28.8983 24.9594C28.6252 24.6732 28.2955 24.445 27.9295 24.2888C27.5635 24.1326 27.1689 24.0517 26.7699 24.0511C26.0012 24.0511 25.3068 24.3523 24.78 24.8333C24.6669 24.7454 24.553 24.659 24.4455 24.564C24.9754 24.0223 25.6595 23.6743 26.3919 23.6743C26.5002 23.6743 26.611 23.6814 26.7217 23.6954L29.232 23.9584L28.8983 24.9594ZM29.4709 23.2424L26.8087 22.9622C26.6705 22.9446 26.5313 22.9358 26.3919 22.9357C25.4412 22.9357 24.5625 23.3599 23.8998 24.0394C22.0854 22.1426 20.9323 19.3786 19.5854 17.3098C18.4718 15.6005 17.1882 14.001 15.5969 12.8973L15.8049 12.221C18.0265 12.5276 26.0668 14.1162 30.1597 21.1712L29.4709 23.2424ZM38.5346 21.5534C39.0308 22.4261 39.421 23.3533 39.6972 24.3157L35.8163 23.9071C36.4543 22.8656 37.4037 22.0435 38.5346 21.5534ZM39.891 25.0769C39.944 25.3128 39.9915 25.5509 40.031 25.7899C39.8784 25.8942 39.7463 26.0265 39.6411 26.1783L34.9937 26.1713C35.0706 25.6336 35.2212 25.1086 35.4414 24.6107L39.891 25.0769ZM33.2474 16.5836C33.8667 16.8926 34.4536 17.2468 35.0024 17.639C33.8182 18.3871 32.7854 19.3452 31.9567 20.4644L33.2474 16.5836ZM32.0033 26.1674L31.2812 26.1658C31.3548 25.484 31.4956 24.8349 31.6886 24.2169L32.3925 24.2916C32.1979 24.8909 32.0658 25.519 32.0033 26.1674ZM32.6535 23.5755L31.9417 23.5C32.7595 21.4433 34.2684 19.7243 36.2173 18.6291C36.3921 18.7918 36.5605 18.9591 36.725 19.1304C34.8877 20.1059 33.4494 21.6762 32.6535 23.5755ZM34.9605 27.6533C36.4846 27.6548 38.0174 27.6564 39.5209 27.6564C39.7581 28.16 40.2651 28.5118 40.8575 28.5118C41.6769 28.5118 42.3404 27.8471 42.3404 27.0251C42.3404 26.4344 41.994 25.9277 41.495 25.6879C41.476 25.5704 41.457 25.4513 41.4356 25.3353C42.134 25.6023 42.7114 26.1643 42.7114 27.0251C42.7114 28.1312 41.7567 28.7531 40.81 28.876L35.4422 29.4396C35.1881 28.8724 35.0256 28.2697 34.9605 27.6533ZM40.8575 32.9725C38.7284 32.9725 36.8619 31.8369 35.8163 30.1424L40.897 29.6092C42.4053 29.4115 43.4524 28.3499 43.4524 27.0244C43.4524 25.8078 42.565 24.8216 41.2585 24.515C40.9738 23.3462 40.546 22.2158 39.9843 21.1486C40.273 21.1021 40.565 21.0779 40.8575 21.0762C44.1294 21.0762 46.7892 23.7444 46.7892 27.0244C46.7892 30.3035 44.1294 32.9725 40.8575 32.9725Z" fill="black"/>
</g>
</svg>
